<svg width="714" height="714" viewBox="0 0 714 714" fill="none" xmlns="http://www.w3.org/2000/svg">
    <circle cx="357" cy="357" r="357" fill="black"/>
    <circle cx="357.5" cy="357.5" r="316.5" fill="white"/>
    <path d="M184.768 528C181.051 534.51 170.82 554.272 176.874 542.794C182.927 531.316 196.122 506.925 201.963 496.164L213.911 472.649C219.115 462.362 225.2 450.352 231.774 437.403C237.599 425.927 243.809 413.714 250.128 401.309C258.193 385.474 266.438 369.327 274.292 354C282.486 338.011 290.256 322.915 296.955 310C308.312 288.104 316.593 272.476 318.65 269.389C322.429 263.716 330.151 250.778 338.373 237C347.482 221.736 357.204 205.441 362.856 196.853C373.608 180.512 382.37 162.179 385.556 168.157C388.742 174.135 390.733 179.715 391.131 185.693C391.263 187.665 391.308 199.546 391.307 215C391.307 224.182 391.289 234.625 391.264 245C391.248 251.467 391.229 257.907 391.209 264C391.184 271.593 391.156 278.645 391.131 284.534L390.086 302.5L389.115 319.208L386.751 359.86C386.496 364.693 385.975 372.35 385.22 380C384.398 388.332 383.3 396.655 381.972 401.309C378.786 412.468 378.786 416.852 374.007 421.635C369.228 426.418 368.033 425.62 364.05 427.215C360.864 428.49 352.634 426.949 348.917 426.019L333.783 419.244C330.465 417.649 323.907 412.947 324.225 406.889C324.379 403.967 327.502 398.828 331.425 393.5C335.636 387.778 340.77 381.839 344.138 378.193L356.774 366.391L379.98 344.715L403.274 325.164L412.274 317.61L440.274 294.108L453.337 283.143L466.4 272.179L492.685 251.853C493.747 250.79 495.95 249.302 496.269 251.853C496.587 254.403 480.737 264.606 472.772 269.389C469.719 271.116 463.294 275.208 462.019 277.758C461.191 279.417 458.52 291.056 456.024 302.5C454.682 308.652 453.39 314.748 452.461 319.208L450.055 329.5L447.25 341.5L442.958 359.86L440.274 371.344L434.393 396.5L432.151 406.092C431.147 410.323 429.667 416.188 428.129 421.635C425.804 429.87 423.345 437.149 422.195 436.381C419.805 434.787 423.585 411.399 423.585 411" stroke="black" stroke-width="30"/>
    <ellipse cx="518" cy="459" rx="22" ry="21" fill="black"/>
    </svg>
